:SAMPLES-PER-SECOND 30
:FULLY-SPECIFIED
:DEGREES
55
root  -5.55116 39.7416 -2.89467 176.019 56.4224 176.483
RightUpLeg  -9.05522 -3.67141 -3.94406
RightLeg  12.7533 -9.11896 -3.12477
RightFoot  -1.29231 -0.665328 7.45609
RightToes  -5.8209e-011 0 -3.6325e-017
Spine  1.89666 0.0693563 -6.34252
Spine1  24.2358 1.44579 -3.69258
HEad  -18.0713 38.7143 -11.2952
LeftShoulder1  1.95623 -4.3514 -18.3333
LeftArm  5.19791 -6.28711 -59.933
LeftForeArm  -6.25428 -76.5459 -67.6498
LeftHand  0.150396 6.02473 27.1158
RightShoulder  1.10871 1.16578 17.1899
RightArm  1.46069 -9.09788 60.4605
RightForeArm  7.261 40.5144 9.11275
RightHand  -0.546149 2.40019 -8.33255
LeftUpLeg  -0.27206 4.15892 -0.287868
LeftLeg  12.142 18.8789 2.84329
LeftFoot  -8.80978 0.123852 -3.21579
LeftToes  -3.91115e-011 -2.2622e-010 9.51032e-012
56
root  -5.59273 39.6798 -2.7543 175.916 56.7264 176.119
RightUpLeg  -9.96922 -3.51468 -3.95799
RightLeg  13.6466 -8.86904 -3.1804
RightFoot  -1.46101 -0.634491 7.21513
RightToes  -5.8209e-011 0 -3.6325e-017
Spine  2.8181 -0.092703 -5.76191
Spine1  23.8573 1.52832 -4.39128
HEad  -19.048 39.0251 -12.0485
LeftShoulder1  1.94661 -4.34799 -18.2128
LeftArm  5.13615 -6.6998 -59.9539
LeftForeArm  -6.19513 -76.5688 -67.9175
LeftHand  0.121239 5.8859 27.8045
RightShoulder  1.10709 1.19418 16.9947
RightArm  0.748893 -8.82411 60.1968
RightForeArm  8.25808 43.0988 9.93568
RightHand  -0.628323 2.65286 -9.26731
LeftUpLeg  -1.28888 5.87368 -0.206995
LeftLeg  13.4867 17.0729 3.15093
LeftFoot  -9.17941 0.128774 -3.92141
LeftToes  -3.91115e-011 -2.2622e-010 9.51032e-012
57
root  -5.67317 39.5975 -2.60646 175.981 56.875 175.987
RightUpLeg  -10.9567 -3.4673 -3.89279
RightLeg  14.6752 -8.71301 -3.22592
RightFoot  -1.63416 -0.606039 6.99648
RightToes  -5.8209e-011 0 -3.6325e-017
Spine  4.0741 -0.290541 -5.16149
Spine1  23.3149 1.44439 -4.83381
HEad  -20.2293 39.3144 -13.1316
LeftShoulder1  1.95032 -4.38902 -18.1244
LeftArm  4.99523 -7.14228 -60.1785
LeftForeArm  -6.03978 -76.5866 -68.1147
LeftHand  0.0597333 5.61761 28.9039
RightShoulder  1.09953 1.22355 16.6589
RightArm  0.0421878 -8.36142 59.8899
RightForeArm  9.08146 45.768 10.886
RightHand  -0.749544 2.94472 -10.6478
LeftUpLeg  -2.84534 8.55672 -0.0856943
LeftLeg  15.7046 13.9201 3.71796
LeftFoot  -9.59993 0.132392 -4.91819
LeftToes  -3.91115e-011 -2.2622e-010 9.51032e-012
58
root  -5.7904 39.4953 -2.45411 176.166 56.821 176.107
RightUpLeg  -11.9012 -3.57675 -3.74394
RightLeg  15.7834 -8.63835 -3.28739
RightFoot  -1.85784 -0.582896 6.86563
RightToes  -5.8209e-011 0 -3.6325e-017
Spine  5.56315 -0.488567 -4.73707
Spine1  22.7865 1.14665 -4.77297
HEad  -21.7311 39.595 -14.477
LeftShoulder1  1.98328 -4.52666 -18.1107
LeftArm  4.75883 -7.6894 -60.6122
LeftForeArm  -6.40079 -76.551 -67.7269
LeftHand  -0.00761641 5.34714 30.0405
RightShoulder  1.0823 1.23019 16.2236
RightArm  -0.529343 -7.56662 59.508
RightForeArm  9.83981 48.1868 11.8371
RightHand  -0.887277 3.18157 -12.2194
LeftUpLeg  -4.86742 10.0516 0.0901604
LeftLeg  18.8563 10.2307 4.15936
LeftFoot  -9.77597 0.138864 -5.85794
LeftToes  -3.91115e-011 -2.2622e-010 9.51032e-012
59
root  -5.93803 39.3639 -2.31733 176.381 56.7862 176.403
RightUpLeg  -12.8579 -3.67489 -3.53564
RightLeg  17.1142 -8.55208 -3.40013
RightFoot  -2.2018 -0.561335 6.82649
RightToes  -5.8209e-011 0 -3.6325e-017
Spine  7.04088 -0.636328 -4.32414
Spine1  22.4751 0.848003 -4.48758
HEad  -23.3003 39.8751 -15.7113
LeftShoulder1  2.02889 -4.73137 -18.0469
LeftArm  4.53548 -8.37781 -61.2128
LeftForeArm  -7.2111 -76.4792 -66.9803
LeftHand  -0.0702725 5.11604 31.1158
RightShoulder  1.05929 1.18852 15.9093
RightArm  -0.961652 -6.3874 59.0304
RightForeArm  10.6588 49.9205 12.563
RightHand  -1.08614 3.6466 -14.1358
LeftUpLeg  -6.92322 7.46875 0.558684
LeftLeg  22.5689 7.51395 3.75291
LeftFoot  -9.85603 0.146988 -6.78827
LeftToes  -3.91115e-011 -2.2622e-010 9.51032e-012
60
root  -6.10734 39.2084 -2.22337 176.582 57.267 176.828
RightUpLeg  -13.8433 -3.45161 -3.25187
RightLeg  18.5981 -8.27288 -3.4963
RightFoot  -2.59473 -0.538252 6.79784
RightToes  -5.8209e-011 0 -3.6325e-017
Spine  8.28133 -0.646609 -3.62752
Spine1  22.4922 0.882013 -4.49057
HEad  -24.6358 40.2173 -16.6434
LeftShoulder1  2.0579 -4.89502 -17.9015
LeftArm  4.48923 -9.17021 -61.8563
LeftForeArm  -7.64421 -76.4212 -66.3768
LeftHand  -0.171269 4.7674 32.2658
RightShoulder  1.03875 1.119 15.7956
RightArm  -1.36936 -4.93505 58.538
RightForeArm  10.9055 50.8644 13.0016
RightHand  -1.39923 4.49175 -16.5945
LeftUpLeg  -8.52723 3.37334 1.24343
LeftLeg  26.1053 4.29766 2.6261
LeftFoot  -10.3026 0.132383 -7.85224
LeftToes  -3.91115e-011 -2.2622e-010 9.51032e-012
61
root  -6.29879 39.0501 -2.18506 176.729 58.5678 177.314
RightUpLeg  -14.7746 -2.74376 -2.92115
RightLeg  19.9619 -7.68539 -3.45298
RightFoot  -2.88019 -0.520176 6.7581
RightToes  -5.8209e-011 0 -3.6325e-017
Spine  9.32598 -0.460271 -2.73194
Spine1  22.7044 1.31908 -4.831
HEad  -25.8571 40.7442 -17.5876
LeftShoulder1  2.06436 -4.94924 -17.8143
LeftArm  4.56336 -9.87404 -62.4037
LeftForeArm  -7.02835 -76.4194 -66.2911
LeftHand  -0.306915 4.32024 33.269
RightShoulder  1.02315 1.07297 15.6698
RightArm  -1.84283 -3.4186 58.2302
RightForeArm  10.1688 51.3213 13.2911
RightHand  -1.77893 5.43482 -19.2065
LeftUpLeg  -9.40665 -0.278147 2.0292
LeftLeg  29.3298 1.75207 1.41617
LeftFoot  -11.0869 0.0860207 -8.76753
LeftToes  -3.91115e-011 -2.2622e-010 9.51032e-012
62
root  -6.52079 38.917 -2.19158 176.697 60.4134 177.656
RightUpLeg  -15.553 -1.75623 -2.70106
RightLeg  20.9627 -6.86921 -3.22331
RightFoot  -2.92661 -0.51838 6.76663
RightToes  -5.8209e-011 0 -3.6325e-017
Spine  10.4161 -0.149095 -2.14659
Spine1  22.8232 1.84696 -5.12098
HEad  -27.3115 41.4815 -18.9271
LeftShoulder1  2.0617 -4.95108 -17.7745
LeftArm  4.46969 -10.1875 -62.8655
LeftForeArm  -5.54959 -76.488 -66.8916
LeftHand  -0.390146 4.05462 33.7193
RightShoulder  1.0086 1.07692 15.2993
RightArm  -2.37433 -2.05889 58.3091
RightForeArm  9.14921 51.6052 13.5196
RightHand  -2.08055 6.06859 -21.1636
LeftUpLeg  -9.50396 -2.3712 2.64316
LeftLeg  32.0705 0.54986 0.728934
LeftFoot  -11.5568 0.0520123 -9.18312
LeftToes  -3.91115e-011 -2.2622e-010 9.51032e-012
63
root  -6.775 38.823 -2.22497 176.514 62.2435 177.757
RightUpLeg  -16.2046 -0.901758 -2.6718
RightLeg  21.5298 -5.98439 -2.86865
RightFoot  -2.69895 -0.534894 6.82633
RightToes  -5.8209e-011 0 -3.6325e-017
Spine  11.601 0.113167 -2.15509
Spine1  22.7078 2.13208 -5.17503
HEad  -29.0218 42.2821 -20.5585
LeftShoulder1  2.05591 -4.99695 -17.5588
LeftArm  4.10554 -9.9956 -63.3041
LeftForeArm  -3.83222 -76.6008 -68.0144
LeftHand  -0.400552 4.02077 33.7383
RightShoulder  0.995714 1.12751 14.7267
RightArm  -2.87674 -1.03784 58.8115
RightForeArm  8.71614 51.766 13.6384
RightHand  -2.21831 6.30713 -22.0643
LeftUpLeg  -8.96383 -3.27371 2.93053
LeftLeg  33.6965 0.0914125 0.424076
LeftFoot  -11.7061 0.0404441 -9.23964
LeftToes  -3.91115e-011 -2.2622e-010 9.51032e-012
64
root  -7.0524 38.7606 -2.27513 176.464 63.7693 177.759
RightUpLeg  -16.9014 -0.387666 -2.74389
RightLeg  21.729 -5.12311 -2.4767
RightFoot  -2.25282 -0.562661 6.87726
RightToes  -5.8209e-011 0 -3.6325e-017
Spine  12.6661 0.225464 -2.58846
Spine1  22.4182 2.1296 -5.17522
HEad  -30.6872 43.0079 -22.0967
LeftShoulder1  2.04673 -5.09224 -17.1522
LeftArm  3.76734 -9.54678 -63.5438
LeftForeArm  -2.17199 -76.7154 -69.2556
LeftHand  -0.452839 3.85554 33.9454
RightShoulder  0.991845 1.21734 14.1825
RightArm  -3.19184 -0.436121 59.5571
RightForeArm  8.75443 51.7157 13.6091
RightHand  -2.25242 6.38306 -22.2494
LeftUpLeg  -8.15831 -3.52268 2.95169
LeftLeg  33.6853 -0.306134 0.139812
LeftFoot  -12.4496 -0.0145738 -9.17248
LeftToes  -3.91115e-011 -2.2622e-010 9.51032e-012
65
root  -7.35029 38.7125 -2.33538 176.709 64.9549 177.746
RightUpLeg  -17.8127 -0.146795 -2.86747
RightLeg  21.7188 -4.3449 -2.12333
RightFoot  -1.68236 -0.599082 6.94514
RightToes  -5.8209e-011 0 -3.6325e-017
Spine  13.5135 0.219796 -3.2934
Spine1  22.001 1.91971 -5.18194
HEad  -32.1972 43.6498 -23.4556
LeftShoulder1  2.04315 -5.17817 -16.8514
LeftArm  3.78328 -9.22749 -63.2897
LeftForeArm  -0.692281 -76.806 -70.2889
LeftHand  -0.615367 3.35401 34.6064
RightShoulder  0.995862 1.30838 13.8329
RightArm  -3.07348 -0.191601 60.2706
RightForeArm  8.54866 51.4091 13.4674
RightHand  -2.25129 6.42877 -22.1569
LeftUpLeg  -7.57532 -2.9561 2.78737
LeftLeg  32.3874 -0.554236 -0.0245965
LeftFoot  -14.0671 -0.122375 -8.71301
LeftToes  -3.91115e-011 -2.2622e-010 9.51032e-012
66
root  -7.68007 38.6595 -2.39663 177.075 65.6903 177.633
RightUpLeg  -18.9527 -0.106684 -3.11567
RightLeg  21.7374 -3.76545 -1.87092
RightFoot  -1.0906 -0.646817 7.11815
RightToes  -5.8209e-011 0 -3.6325e-017
Spine  14.3451 0.155128 -4.25005
Spine1  21.4565 1.51766 -4.99605
HEad  -33.7572 44.1644 -24.8215
LeftShoulder1  2.05253 -5.24341 -16.7776
LeftArm  4.15489 -9.29288 -62.6105
LeftForeArm  0.0364211 -76.8471 -70.7726
LeftHand  -0.77129 2.88799 35.2186
RightShoulder  0.992963 1.31654 13.7279
RightArm  -2.33255 -0.190636 60.7494
RightForeArm  7.86431 50.8575 13.2425
RightHand  -2.17968 6.30963 -21.6854
LeftUpLeg  -7.58601 -1.6855 2.43073
LeftLeg  30.9632 -0.372313 0.110433
LeftFoot  -15.6831 -0.187096 -7.41438
LeftToes  -3.91115e-011 -2.2622e-010 9.51032e-012
67
root  -8.04295 38.5882 -2.45241 177.381 65.9463 177.473
RightUpLeg  -20.1582 -0.317042 -3.46116
RightLeg  21.9551 -3.37267 -1.71356
RightFoot  -0.56243 -0.698051 7.34829
RightToes  -5.8209e-011 0 -3.6325e-017
Spine  15.3475 0.0699093 -5.19369
Spine1  20.9315 1.04869 -4.66961
HEad  -35.4812 44.3819 -26.1875
LeftShoulder1  2.063 -5.3191 -16.6882
LeftArm  4.71202 -9.85158 -61.8995
LeftForeArm  -0.368164 -76.8195 -70.4321
LeftHand  -0.782126 2.85294 35.1963
RightShoulder  0.97769 1.21942 13.8409
RightArm  -1.10037 -0.432418 60.98
RightForeArm  7.07583 50.0886 12.9259
RightHand  -1.99444 5.92328 -20.5524
LeftUpLeg  -8.18332 -0.753344 1.93064
LeftLeg  30.3805 0.132144 0.436548
LeftFoot  -16.6599 -0.167338 -5.73386
LeftToes  -3.91115e-011 -2.2622e-010 9.51032e-012
